<svg width="24" height="24" viewBox="0 0 24 24" fill="none" xmlns="http://www.w3.org/2000/svg">
<path fill-rule="evenodd" clip-rule="evenodd" d="M5.37982 2.03562C5.44257 1.9677 5.51558 1.91 5.59621 1.86464C7.4639 0.650428 9.63361 0 12.0648 0C14.3213 0 16.4448 0.605372 18.2257 1.68788L18.2377 1.6957C18.3774 1.78608 18.7053 1.99822 18.8772 2.25282C17.1414 0.347742 12.0197 4.46404 12.0197 4.46404C10.2388 3.11928 8.63381 2.16617 7.41877 1.86464C6.37847 1.55733 5.683 1.77337 5.37982 2.03562ZM20.8293 3.85405C20.8067 3.83383 20.7741 3.80119 20.7414 3.76855C20.7087 3.73591 20.676 3.70328 20.6534 3.68307C20.2819 3.26938 19.7336 3.05954 19.1803 3.11928C18.7464 3.24983 16.7074 3.98575 14.1443 6.36796C14.1443 6.36796 16.9655 9.13835 18.7464 11.9549C20.4655 14.7433 21.5013 16.9391 20.8892 19.972C20.7914 19.5491 20.3861 18.1235 19.0484 16.2468C18.6596 15.6819 17.2721 14.0356 16.4911 13.1692H16.4899L16.4841 13.1628C15.7033 12.2965 14.5745 11.0444 13.06 9.57158C12.948 9.46014 12.8355 9.35239 12.7227 9.24432C12.4893 9.02074 12.2545 8.79581 12.0197 8.53413C12.0197 8.53413 11.455 9.09791 10.763 9.83383C10.7006 9.89622 10.6368 9.95999 10.5718 10.0249C9.68637 10.9095 8.58935 12.0056 7.98347 12.6955C6.81241 13.949 3.4265 17.8943 3.21011 20.1009C3.21011 20.1009 2.47299 18.3275 4.12313 14.2967C5.2074 11.6523 8.46255 7.66766 9.80487 6.36796C9.80487 6.36796 8.54818 4.98161 6.98483 4.07124L6.94317 4.03081C6.2072 3.59757 5.37982 3.24983 4.59757 3.20478C3.77597 3.24983 3.29574 3.85405 3.29574 3.85405C1.17407 6.03566 -0.00873571 8.95925 9.77032e-05 12C-0.000823486 15.1829 1.26523 18.2357 3.51954 20.4863C5.77386 22.7369 8.83163 24.0009 12.0197 24C15.5375 24 18.7013 22.4831 20.9161 20.1009C20.9161 20.1009 20.912 20.0757 20.9016 20.0271C22.9046 17.8338 24.0103 14.9692 23.9988 12C24.0417 8.97717 22.9051 6.05624 20.8293 3.8552V3.85405ZM20.9016 20.0271C20.8982 20.0112 20.8941 19.9928 20.8892 19.972C20.8833 20.0014 20.8772 20.0309 20.871 20.0605C20.8812 20.0494 20.8914 20.0382 20.9016 20.0271Z" fill="#000000"/>
</svg>
