<svg width="24" height="24" viewBox="0 0 24 24" fill="none" xmlns="http://www.w3.org/2000/svg">
<path fill-rule="evenodd" clip-rule="evenodd" d="M14.4386 7.15276V13.0893C16.8758 14.2956 18.7935 13.0881 18.7935 9.90133C18.7935 6.63209 17.6715 5.18088 14.3606 4.01522C13.0586 3.56472 10.637 2.81634 8.975 2.5V20.2273L12.8846 21.5V6.63332C12.8846 5.93664 13.1882 5.47137 13.6766 5.63138C14.3126 5.81355 14.4386 6.45608 14.4386 7.15276ZM23.7867 17.043C23.3175 17.6498 22.1691 18.0818 22.1691 18.0818L13.625 21.2304V18.909L19.9131 16.6109C20.6271 16.3487 20.7363 15.9782 20.1567 15.7838C19.5783 15.588 18.5295 15.6447 17.8155 15.9081L13.625 17.4221V15.0132L13.8662 14.9295C13.8662 14.9295 15.077 14.4901 16.7798 14.2968C18.4827 14.1048 20.5671 14.3227 22.2039 14.9591C24.0471 15.5548 24.2547 16.4361 23.7867 17.043ZM1.80136 18.6665C-0.0922548 18.12 -0.406657 16.9802 0.456149 16.3241C1.25415 15.7173 2.61016 15.2606 2.61016 15.2606L8.2154 13.2161V15.5462L4.18217 17.0269C3.46937 17.2891 3.36017 17.6609 3.93857 17.8553C4.51817 18.0498 5.56698 17.9957 6.28098 17.7322L8.2154 17.0122V19.0973L7.82899 19.1638C5.8101 19.4994 3.74201 19.3288 1.80136 18.6665Z" fill="black"/>
</svg>
