<svg width="24" height="24" viewBox="0 0 24 24" fill="none" xmlns="http://www.w3.org/2000/svg">
<path fill-rule="evenodd" clip-rule="evenodd" d="M14.0466 0.0328852C14.0329 0.0466315 14.0054 5.43521 14.0054 12.006C14.0054 22.8381 14.0054 23.9378 14.0879 23.9653C14.2253 24.0203 18.0746 23.9928 18.5558 23.9516C20.5767 23.7179 22.3501 22.4945 23.3262 20.6662C23.4499 20.4325 23.6149 20.0339 23.6974 19.8002C23.7063 19.7738 23.7149 19.7484 23.7233 19.7238C23.7589 19.6193 23.7899 19.5282 23.8169 19.436C24.0004 18.8099 24.0003 18.13 23.9999 12.8334C23.9999 12.5609 23.9998 12.2761 23.9998 11.9785C23.9998 6.28749 23.9861 5.43521 23.9173 5.06406C23.4224 2.47974 21.4565 0.527754 18.8583 0.074124C18.5146 0.019139 17.9784 0.00539272 16.2462 0.00539272C15.0502 -0.00835354 14.0604 0.00539272 14.0466 0.0328852ZM19.3532 10.8513C20.123 11.0575 20.7692 11.6486 21.0166 12.4046C21.1816 12.872 21.1816 13.5593 21.0166 13.9855C20.7142 14.769 20.123 15.3189 19.3532 15.525C18.1159 15.8412 16.7961 15.0989 16.4249 13.8617C16.315 13.4906 16.315 12.8445 16.4387 12.4596C16.8099 11.2362 18.1021 10.5214 19.3532 10.8513ZM0.216632 4.5967C0.821523 2.27357 2.74617 0.500285 5.13824 0.0741469C5.45443 0.0191619 6.1693 0.00541371 8.53388 0.01916C11.4483 0.01916 11.5308 0.0191619 11.5858 0.115386C11.6271 0.184117 11.6408 3.97812 11.6408 12.0335C11.6408 22.9069 11.6271 23.8691 11.5583 23.9379C11.4758 24.0066 11.1871 24.0066 8.41015 23.9928C5.71564 23.9791 5.30321 23.9516 4.97327 23.8829C2.45748 23.2918 0.684048 21.5185 0.134147 19.0304C0.0244853 18.5644 0.024168 18.4264 0.0105386 12.4976L0.0104196 12.4459C-0.0170754 5.9301 -0.00332794 5.43523 0.216632 4.5967ZM9.63368 22.0546V11.9923V1.92991H7.70903C5.59191 1.94365 5.28946 1.97114 4.62958 2.23233C3.32357 2.75469 2.36124 3.90939 2.0588 5.31152C1.94882 5.79264 1.94882 18.1644 2.0588 18.6592C2.38874 20.2538 3.58477 21.491 5.17948 21.9034C5.55067 21.9996 5.74313 22.0134 7.61279 22.0271L9.63368 22.0546ZM5.56442 4.96778C5.24823 5.02277 4.78081 5.2702 4.51961 5.49014C3.9972 5.94377 3.736 6.58985 3.77724 7.33216C3.79099 7.7308 3.81848 7.82703 3.98345 8.14319C4.21716 8.62432 4.5746 8.98172 5.05576 9.21541C5.3857 9.38037 5.46819 9.39411 5.90811 9.40786C6.30678 9.42161 6.44426 9.40786 6.70546 9.31164C7.77777 8.95423 8.43765 7.89576 8.24518 6.82354C8.02522 5.57262 6.81544 4.72035 5.56442 4.96778Z" fill="black"/>
</svg>
